PathFileType	3	(X/Y/Z)	D:\Vicon Database\Healthy Subjects\S0040\Jan. 30, 2020\Force Plate Walk 8.trc
DataRate	CameraRate	NumFrames	NumMarkers	Units	OrigDataRate	OrigDataStartFrame	OrigNumFrames
100.0	100.0	5	53	mm	100.0	307	319	
Frame#	Time	right_foot_cluster2			right_foot_cluster3			sternum_cluster1			sternum_cluster2			sternum_cluster3			left_asis			right_asis			left_psis			right_psis			sacrum_cluster1			sacrum_cluster2			sacrum_cluster3			left_lat_femoral_epicondyle			left_anterior_thigh15			left_anterior_thigh25			left_anterior_thigh50			left_lateral_thigh25			left_lateral_thigh50			left_thigh_cluster1			left_thigh_cluster2			left_thigh_cluster3			left_fibular_head			left_tibial_tuberosity			left_anterior_shank30			left_lateral_malleolus			left_shank_cluster1			left_shank_cluster2			left_shank_cluster3			left_heel			left_metatarsal2			left_foot_cluster1			left_foot_cluster2			left_foot_cluster3			right_lat_femoral_epicondyle			right_anterior_thigh15			right_anterior_thigh25			right_anterior_thigh50			right_lateral_thigh25			right_lateral_thigh50			right_thigh_cluster1			right_thigh_cluster2			right_thigh_cluster3			right_fibular_head			right_tibial_tuberosity			right_lateral_distal_shank			right_anterior_shank30			right_lateral_malleolus			right_shank_cluster1			right_shank_cluster2			right_shank_cluster3			right_heel			right_metatarsal2			right_foot_cluster1			
		X1	Y1	Z1	X2	Y2	Z2	X3	Y3	Z3	X4	Y4	Z4	X5	Y5	Z5	X6	Y6	Z6	X7	Y7	Z7	X8	Y8	Z8	X9	Y9	Z9	X10	Y10	Z10	X11	Y11	Z11	X12	Y12	Z12	X13	Y13	Z13	X14	Y14	Z14	X15	Y15	Z15	X16	Y16	Z16	X17	Y17	Z17	X18	Y18	Z18	X19	Y19	Z19	X20	Y20	Z20	X21	Y21	Z21	X22	Y22	Z22	X23	Y23	Z23	X24	Y24	Z24	X25	Y25	Z25	X26	Y26	Z26	X27	Y27	Z27	X28	Y28	Z28	X29	Y29	Z29	X30	Y30	Z30	X31	Y31	Z31	X32	Y32	Z32	X33	Y33	Z33	X34	Y34	Z34	X35	Y35	Z35	X36	Y36	Z36	X37	Y37	Z37	X38	Y38	Z38	X39	Y39	Z39	X40	Y40	Z40	X41	Y41	Z41	X42	Y42	Z42	X43	Y43	Z43	X44	Y44	Z44	X45	Y45	Z45	X46	Y46	Z46	X47	Y47	Z47	X48	Y48	Z48	X49	Y49	Z49	X50	Y50	Z50	X51	Y51	Z51	X52	Y52	Z52	X53	Y53	Z53	
307	3.06	3627.5349	128.02672	-215.79208	3623.7534	128.44914	-253.12796	3220.1724	1436.9176	-153.94746	3209.8096	1408.0874	-145.46033	3210.7515	1410.9822	-183.36893	3248.0835	1066.1385	-33.225246	3252.7419	1056.8356	-282.50189	3415.5593	1081.9385	-76.29081	3420.2114	1080.1636	-195.09412				3430.7637	1112.0076	-155.92468	3432.9646	1108.5806	-116.48764	3196.936	548.3335	-16.829165	3128.3364	648.12042	-72.321831	3132.4749	734.42004	-54.138454	3167.9583	865.89215	-31.554516	3232.873	696.64624	11.159716	3262.522	841.95728	40.97221	3253.3955	795.8537	46.824219	3250.2969	766.08496	41.606728	3217.1201	782.54333	43.70681	3182.3909	469.65503	-13.20545	3134.2739	465.14124	-74.128349	3165.7878	212.39682	-87.885155	3221.7629	101.57827	-56.325943	3138.6218	408.47018	-103.83289	3134.1113	380.71936	-96.496597	3153.6365	382.20743	-130.23631	3295.6399	67.112556	-91.158661	3077.9395	75.316811	-97.293228	3139.4587	121.51443	-90.791382	3115.0176	105.84872	-80.617683	3111.4922	111.51254	-118.30173	3337.833	512.37677	-302.99048	3235.6514	582.70508	-256.87799	3213.7622	667.48035	-251.37344	3215.4355	801.59583	-250.79134	3320.3943	666.7829	-320.80621	3318.7422	813.76569	-337.34848	3329.5417	764.94879	-344.80319	3318.9258	738.26093	-343.80939	3356.9341	737.73248	-335.60507	3382.2319	467.50333	-308.35593	3344.4636	421.66736	-266.83279	3593.0393	304.98566	-282.50156	3549.8245	274.44373	-241.81306	3668.137	236.64622	-266.85449	3396.9905	376.1749	-208.61917	3421.54	362.87967	-201.70583	3410.8247	348.74863	-234.22034	3724.5803	294.00778	-228.14856	3650.0461	87.62188	-222.36276	3620.2122	155.21233	-226.40196
308	3.07	3602.7034	135.15633	-212.7798	3597.9883	135.74263	-250.56236	3206.6018	1439.1249	-154.23062	3196.5764	1409.7279	-145.49614	3197.3369	1413.124	-183.51772	3234.0469	1067.7961	-32.952011	3240.5894	1058.2455	-282.62247	3402.0862	1083.8993	-75.41729	3407.0947	1081.2136	-194.36563				3420.0327	1114.9695	-155.11198	3419.5581	1110.3527	-115.59504	3191.6877	547.92871	-15.938055	3120.946	646.00177	-70.297104	3123.4849	731.9809	-52.047337	3156.772	864.83893	-30.561861	3225.5088	696.58167	11.725973	3251.8335	842.59991	41.396339	3241.5562	797.13684	47.97559	3240.2478	766.93964	41.78986	3207.0085	782.80823	44.255222	3178.0632	469.12033	-12.170979	3129.7761	463.83453	-72.755417	3164.5603	211.7027	-87.399834	3221.5879	101.56291	-56.236801	3134.6733	407.52704	-102.73652	3130.7634	379.75726	-95.449265	3149.2039	381.8493	-129.00925	3295.5562	67.239128	-91.109116	3077.8157	74.940247	-97.196602	3139.3108	121.32678	-90.569191	3114.8557	105.69585	-80.550865	3111.3154	110.81365	-118.40054	3311.4167	513.23853	-303.93024	3211.769	585.89532	-256.69482	3193.4946	670.99487	-251.39343	3199.2554	804.6535	-250.69669	3299.178	667.57617	-321.38925	3302.7866	814.38336	-337.22446	3311.7229	765.38837	-344.94717	3300.7263	739.16943	-344.66287	3338.6624	737.53375	-335.91693	3354.5854	468.53366	-309.0459	3317.1414	423.03983	-266.35138	3567.6143	310.03815	-282.40247	3525.4316	279.2186	-240.59081	3643.311	242.59299	-266.60345	3371.1748	377.53455	-208.77734	3395.5991	364.97443	-200.72168	3385.5415	350.46637	-234.21065	3701.4885	299.8067	-229.73264	3623.6626	94.697586	-219.68921	3595.5754	162.53101	-223.51372
309	3.08	3575.137	141.46477	-210.40109	3569.8203	141.87877	-248.48833	3193.7349	1440.1505	-153.75311	3183.2715	1411.434	-145.5836	3184.5256	1414.4247	-183.429	3220.1765	1069.3964	-32.743866	3228.458	1059.6187	-282.81827	3388.6934	1085.7673	-74.578789	3393.5852	1081.381	-193.14169				3406.2578	1115.9491	-154.34698	3406.2302	1112.0706	-114.70537	3186.6865	547.7099	-14.756994	3114.1025	644.22632	-69.068588	3115.0315	730.19727	-50.422634	3145.7849	864.07599	-29.382648	3217.8213	697.11652	12.311945	3241.5837	843.40393	41.687931	3232.9473	797.49902	48.216564	3232.0066	767.59851	42.240612	3198.3633	782.83575	45.313572	3174.0662	468.44437	-11.180922	3125.7751	462.90536	-71.72438	3163.3892	211.23271	-87.100769	3221.4453	101.47643	-56.086243	3131.5845	406.59436	-101.79938	3127.7671	378.64676	-94.791801	3146.6812	381.39053	-128.21225	3295.5669	67.284157	-91.107277	3077.6628	74.705956	-96.825996	3139.2107	121.12608	-90.719635	3114.6807	105.49459	-80.463631	3111.1357	110.59886	-118.16004	3284.9565	514.49072	-303.83914	3188.1938	589.74695	-256.22455	3173.1482	674.8476	-251.17668	3182.946	808.28894	-250.51755	3279.3142	669.12848	-321.67245	3288.2942	815.57898	-336.80511	3293.8892	766.38727	-344.83746	3283.053	740.37299	-344.98154	3319.6135	737.84503	-335.53223	3327.0342	470.09399	-309.32654	3289.7693	424.31879	-265.74527	3541.5925	314.80484	-282.50821	3498.9915	283.11911	-240.42603	3617.4324	246.53343	-266.0032	3344.0869	380.10458	-207.29321	3369.521	367.77063	-200.16719	3359.3413	353.36792	-233.73784	3677.6809	303.15079	-230.95657	3593.9727	100.77524	-217.41495	3568.5828	169.04163	-221.4388
310	3.09	3545.1169	145.93033	-208.92804	3540.197	146.03276	-246.73291	3179.3298	1442.4092	-153.32637	3170.0798	1413.2421	-145.71486	3171.3682	1416.382	-183.54855	3206.658	1070.9294	-32.792747	3216.6458	1061.1082	-282.86166	3375.4531	1087.5803	-73.810562	3380.9551	1082.6429	-192.34172				3392.709	1117.1801	-153.45709	3393.1218	1113.8354	-113.81522	3182.0588	547.2619	-13.808269	3107.8123	643.11334	-68.256386	3106.8433	729.00726	-49.454105	3135.3289	863.28564	-28.568903	3210.9448	697.30786	12.854235	3231.6848	844.29401	42.008808	3226.564	797.33295	47.597828	3224.5942	767.79193	43.645069	3189.8516	783.01495	45.773453	3170.4106	468.07452	-10.19925	3121.1826	462.07611	-70.281082	3162.3047	210.75688	-86.778725	3221.2683	101.4144	-55.961666	3128.9131	406.11484	-101.1496	3125.3301	378.08948	-94.23645	3144.4658	380.91238	-127.67251	3295.772	67.543396	-91.181107	3077.6067	74.273865	-96.935646	3139.0925	120.97163	-90.452553	3114.6089	105.37612	-80.311516	3110.9961	110.15968	-118.07326	3258.542	516.6073	-304.06888	3164.4844	594.24493	-255.85052	3152.7791	679.3606	-250.56311	3166.5588	812.32068	-250.24855	3258.0491	670.95752	-321.45282	3271.4731	817.35333	-336.19348	3276.1714	767.63281	-344.86426	3265.2061	742.71069	-345.74396	3301.2209	738.94519	-335.28943	3299.5144	472.04449	-309.3685	3262.1843	426.46786	-264.98975	3513.9407	317.03879	-281.8508	3471.8899	286.11627	-240.18222	3590.6538	249.41702	-265.66486	3317.4287	383.16199	-205.89215	3343.1025	370.7471	-199.0853	3332.4778	355.73849	-231.96913	3652.6938	304.37064	-231.39938	3562.4827	105.0675	-215.47667	3539.2722	174.01677	-220.37076
311	3.1	3513.4395	149.8391	-208.20299	3509.1702	149.03592	-245.6322	3167.0039	1443.9958	-153.94536	3156.8586	1415.037	-146.0372	3158.4163	1417.924	-184.00873	3193.2664	1072.3868	-32.833515	3204.6567	1063.3256	-283.0405	3362.2876	1089.5558	-73.005249	3368.5288	1084.4135	-191.50612				3379.4871	1118.8094	-152.43884	3380.0332	1115.7827	-112.89549	3177.4282	547.71069	-13.008326	3101.6484	642.05634	-67.791061	3098.709	728.03082	-48.660614	3125.0151	862.56403	-27.568905	3203.7354	698.38849	13.436953	3221.7214	845.30255	42.399151	3217.6235	798.96832	48.452431	3216.2795	769.20343	43.337269	3181.509	783.33264	46.3923	3167.1763	467.92871	-9.4470787	3118.0439	461.47424	-69.765976	3161.355	210.47356	-86.398613	3221.1897	101.53645	-56.131088	3126.5063	405.62326	-100.41243	3123.1753	377.66888	-93.516853	3142.4058	380.52368	-127.01879	3295.6401	67.606903	-91.156799	3077.4258	73.885109	-96.758774	3138.8584	120.81733	-90.35202	3114.4644	105.23869	-80.316879	3110.8423	109.99654	-117.89178	3232.5452	519.70868	-304.20538	3141.6174	599.32935	-255.32782	3132.3047	684.41223	-249.95389	3150.1611	816.85278	-249.99466	3237.8406	673.35303	-320.04492	3255.5818	819.43713	-335.76266	3258.5535	769.87201	-344.57013	3245.1594	743.9231	-343.76614	3282.3176	739.52411	-334.7634	3271.9563	474.13101	-309.20682	3234.207	429.08112	-264.43713	3485.3623	318.23969	-281.37119	3444.4121	288.49356	-238.60442	3563.1521	250.07713	-265.00784	3291.0129	387.14978	-205.33344	3316.4219	374.36969	-198.33788	3305.5911	358.58755	-230.53694	3626.7593	303.49982	-230.9171	3529.5779	107.67027	-213.92714	3508.9136	178.0634	-219.67468
